<?xml version="1.0" encoding="UTF-8"?>
<!DOCTYPE svg PUBLIC "-//W3C//DTD SVG 1.1//EN" "http://www.w3.org/Graphics/SVG/1.1/DTD/svg11.dtd">
<!-- Creator: CorelDRAW -->
<svg xmlns="http://www.w3.org/2000/svg" xml:space="preserve" width="2.11687in" height="1.08273in" version="1.1" style="shape-rendering:geometricPrecision; text-rendering:geometricPrecision; image-rendering:optimizeQuality; fill-rule:evenodd; clip-rule:evenodd"
viewBox="0 0 3856.73 1972.63"
 xmlns:xlink="http://www.w3.org/1999/xlink"
 xmlns:xodm="http://www.corel.com/coreldraw/odm/2003">
 <defs>
  <style type="text/css">
   <![CDATA[
    .fil0 {fill:#1A292C}
    .fil1 {fill:#848B8A}
   ]]>
  </style>
 </defs>
 <g id="Layer_x0020_1">
  <metadata id="CorelCorpID_0Corel-Layer"/>
  <path class="fil0" d="M3361.54 508.94c-225.91,35.03 -385.9,245.19 -351.81,511.21 29.71,231.92 223.29,410.19 488.1,373.59 225.32,-31.14 387.68,-243.77 354.63,-505.74 -6.99,-55.38 -27.05,-124.69 -52.48,-167.08 -87.35,-145.67 -248.37,-241.46 -438.43,-211.98zm36.08 14.98c-53.01,6.16 -100.45,26.58 -127.19,53.09 -105.63,104.71 -133.54,262.12 -127.45,415.71 8.3,209.24 98.83,417.78 326.19,384.26 193.82,-28.58 260.36,-250.27 246.17,-469.52 -13.28,-205.11 -97.06,-409.19 -317.73,-383.54z"/>
  <path class="fil0" d="M2553.58 510.77c-56.34,14.29 -220.65,-9.76 -256.78,8.25 3.69,14.22 -4.87,16.79 53.12,15.44 37.85,-0.88 188.39,-7.81 199.44,4.48 14.3,32.66 3.63,163.92 19.04,217.27 91.37,26.45 94.83,-19.68 86.91,181.84 -3.44,87.15 -9.13,166.9 -21.66,253.04 -13.69,94.11 -77.21,281 -11.15,331.06 28.83,21.86 80.46,25.93 112.4,7.45 82.62,-47.82 0.24,-272.47 -7.72,-451.86 -2.86,-64.4 -5.39,-513.93 7.49,-538.28 27.03,-16.81 100.79,-5.57 137.7,-5.45 38.12,0.12 121.67,7.27 143.75,-8.92 -9.86,-13.61 9.97,-12.41 -64.77,-11.15 -24.27,0.41 -48.63,0.39 -72.9,0.4 -49.33,0.03 -99.1,-1.16 -148.34,-0.18 0.11,-99.6 0.85,-199.22 0.86,-298.79 0,-26.32 8.59,-195.18 -8.97,-208.83 -20.08,-15.6 -47.06,0.2 -59.01,11.62 -82.68,79.02 -104.8,352.92 -109.4,492.62z"/>
  <path class="fil0" d="M1762 1136.11l-100.16 -0.27c15.24,236.07 267.3,298.98 435.89,248.49 166.26,-49.79 224.15,-203.67 167.39,-324.64 -24.06,-51.3 -48.9,-68.02 -86.57,-95.99 -139.72,-103.74 -426,-139.4 -384.21,-320.57 33.39,-144.76 259.41,-162.12 338.16,-40.18 25.05,38.81 33.83,90.66 35.36,145.96l97.94 1.18c6.89,-198.85 -247.09,-303.61 -436.93,-217.9 -161.6,72.96 -160.64,268.06 -77.07,348.34 141.93,136.35 376.68,155.34 422.53,281.56 18.36,50.54 6.46,107.64 -21.63,143.25 -98.24,124.53 -393.75,115.5 -390.7,-169.21z"/>
  <path class="fil0" d="M1578.82 512.22c-18.89,10.26 -11.45,8.59 -11.49,73.59 -0.09,128.82 8.74,510.61 -10.19,585.34 -56.44,222.83 -304.56,251.11 -430.64,158.54 -67.96,-49.9 -97.31,-124.08 -101.88,-239.76 -2.22,-56.02 -0.55,-113.91 3.13,-169.85 5.13,-78.01 5.04,-78.82 55.49,-113.17 68.06,-46.35 41.13,-200.5 36.42,-293.83 -2.75,-54.55 -6.59,-108.72 -9.98,-162.82 -1.3,-20.66 -3.33,-141.85 -16.7,-158.94 -10.59,27.05 -11.53,344.32 -10.26,418.82 0.39,22.77 4.63,44.84 -7.96,62.11 -31.33,-7.88 -18.33,-20.56 -20.85,-104.66l-9.69 -255.24c-1.7,-36.04 4,-96.25 -11.97,-121.92 -17.76,37.1 -9.67,189.92 -10.87,243.55 -0.95,42.47 -2.69,85.09 -3.15,127.53 -0.91,84.48 11.97,106.29 -22.42,110.03 -23.96,-37.49 1.11,-411.51 -24.29,-481.61 -18.58,17.18 -18,311.3 -20.11,377.66 -2.25,70.88 9.95,102.15 -18.92,105.3 -29.18,-28.3 0.86,-424.59 -21.69,-481.84 -4.15,5.34 -2.99,1.5 -6.63,13.41 -8.74,28.6 -26.11,444.75 -26.29,484.63 -0.65,142.39 75.29,99.9 90.92,172.03 5.39,24.9 5.26,56.95 5.92,82.75 1.5,58.19 0.77,118.37 5.24,176.19 28.22,365.02 497.95,357.01 589.95,82.32 27.07,-80.84 17.69,-244.14 17.7,-337.22 0.01,-58.74 -0.63,-117.42 -0.62,-176.12l-8.16 -176.84z"/>
  <path class="fil0" d="M552.45 1338.91c7.48,16.76 -4.99,7.5 10.95,15.41 50.25,-29.1 56.34,-55.35 95.19,-86.35 -2.98,221.26 28.83,410.83 -90.72,572.25 -64.7,87.36 -238.15,144.08 -359.83,67.69 -17.01,-10.68 -35.12,-26.1 -46.06,-38.91 -6.07,-7.11 -29.01,-41.27 -34.01,-44.33 -4.76,8.33 -0.4,3.72 -10.74,6.02 2.7,21.73 13.06,32.61 25.56,45.57l17.65 18.51c104.85,108.98 422.15,124.76 558.36,-92.01 37.13,-59.08 75.41,-151.83 70.18,-239.28l1.36 -537.39 -408.62 3.79c-0.61,31.28 -0.7,9.33 6.76,17.54l328.01 -0.23c-17.11,75.8 -69.95,222.05 -133.22,267.84 -11.53,8.35 -25.44,13.61 -30.85,23.86z"/>
  <path class="fil0" d="M563.4 1354.33c-15.95,-7.91 -3.47,1.35 -10.95,-15.41 -69.46,28.33 -128.71,56.04 -216.96,28.96 -204.17,-62.67 -214.74,-398.32 -182.17,-573.61 63.14,-339.8 374.8,-349.14 481.41,-108.63 13.99,31.56 18.41,71.33 33.14,101.62l112.33 1.88c-54.92,-309.61 -578.14,-431.86 -744.76,-28.03 -77.32,187.38 -22.6,425.88 110.62,534.66 119.89,97.9 276.54,137.04 417.34,58.57z"/>
  <path class="fil0" d="M117.24 1830.71c10.34,-2.3 5.98,2.32 10.74,-6.02 -32.16,-109.36 -39.08,-171.01 28.95,-255.75 20.84,-25.97 52,-52.48 96.09,-67.78 23.67,-8.21 43.3,-12.8 68.97,-15.23l80.44 -7.37c-9.06,-15.57 -0.51,-11.31 -31.53,-12.53 -305.76,-12.01 -320.33,306.04 -253.66,364.68z"/>
  <path class="fil1" d="M788.99 1563.5c11.84,-30.28 9.91,-479.1 3.18,-537.14 -18.94,-7.91 -318.64,-5.92 -385.83,-2.32l-24.6 5.86 408.62 -3.79 -1.36 537.39z"/>
 </g>
</svg>
